<svg version="1.0" xmlns="http://www.w3.org/2000/svg"
 width="512.000000pt" height="512.000000pt" viewBox="0 0 512.000000 512.000000"
 preserveAspectRatio="xMidYMid meet">

<g transform="translate(0.000000,512.000000) scale(0.100000,-0.100000)"
fill="#000000" stroke="none">
<path d="M2738 3673 l-88 -4 0 -69 0 -68 113 5 112 6 -2 -199 c-2 -110 -4
-525 -5 -924 l-3 -725 -25 -50 c-30 -60 -73 -91 -140 -100 l-50 -7 0 -54 0
-54 390 0 390 0 0 74 0 74 -37 -4 c-21 -2 -86 -5 -146 -8 l-107 -5 2 357 3
357 30 -2 c77 -5 399 19 480 36 425 90 668 350 668 716 1 379 -255 595 -762
645 -94 9 -608 11 -823 3z m817 -137 c144 -26 243 -72 321 -150 95 -96 136
-212 136 -386 0 -64 -7 -128 -17 -164 -52 -194 -210 -344 -425 -406 -84 -24
-279 -37 -375 -25 l-58 7 6 491 c4 302 10 506 17 528 14 48 46 88 84 105 42
18 210 18 311 0z"/>
<path d="M800 3601 l0 -69 113 5 112 6 -2 -249 c-2 -137 -4 -553 -5 -924 l-3
-675 -25 -50 c-30 -60 -75 -92 -141 -101 l-49 -7 0 -53 0 -54 789 0 790 0 5
53 c3 28 8 177 12 330 l6 277 -56 0 -56 0 0 -67 c-1 -131 -40 -259 -104 -338
-41 -50 -131 -99 -206 -113 -30 -6 -197 -13 -370 -17 l-315 -6 3 933 3 933 25
52 c19 40 34 56 68 72 23 12 51 21 62 21 54 1 64 10 64 61 l0 49 -360 0 -360
0 0 -69z"/>
</g>
</svg>